P2
50 100
65535
43432 42222 41804 41372 40962 40626 40378 40177 40038 39969 39868 39973 40088 40214 40411 40629 40924 41152 41510 41908 42315 42730 43156 43667 44115 44495 44819 45127 45436 45762 46096 46411 46673 46889 47073 47255 47436 47595 47747 47858 47964 48048 48087 48132 48182 48235 48300 48332 48358 48467 
43784 42580 42016 41511 41067 40440 39987 39632 39428 39202 39055 39001 39039 39092 39249 39486 39797 40102 40455 40910 41320 41741 42233 42744 43285 43830 44359 44747 45111 45428 45785 46138 46462 46766 47007 47203 47395 47557 47701 47820 47917 48028 48116 48210 48240 48303 48354 48402 48431 48507 
44032 42678 42143 41641 41151 40535 39910 39485 39087 38822 38740 38604 38547 38602 38727 38947 39274 39575 39964 40402 40833 41276 41783 42328 42868 43440 44006 44544 44921 45282 45645 45984 46299 46705 46955 47169 47361 47533 47709 47824 47923 48033 48114 48197 48263 48310 48358 48406 48449 48512 
44246 42881 42267 41667 41119 40584 40046 39403 38906 38528 38321 38132 38124 38104 38193 38409 38670 38949 39400 39861 40351 40807 41339 41899 42463 43075 43653 44260 44770 45142 45488 45850 46214 46554 46882 47104 47313 47519 47677 47849 47939 48046 48144 48196 48278 48318 48371 48405 48449 48493 
44487 43159 42494 41844 41204 40645 40040 39420 38720 38262 37979 37724 37571 37542 37639 37830 38073 38433 38790 39245 39833 40324 40852 41429 42069 42664 43276 43868 44483 44971 45348 45736 46076 46427 46749 47066 47291 47490 47672 47820 47926 48046 48143 48221 48304 48339 48384 48426 48448 48503 
44705 43335 42719 41993 41267 40587 39968 39410 38807 38101 37683 37349 37096 37028 37025 37143 37415 37722 38123 38613 39125 39747 40357 40919 41572 42184 42856 43473 44130 44761 45232 45597 45951 46309 46645 46967 47233 47479 47670 47793 47931 48046 48153 48223 48298 48347 48406 48423 48448 48505 
45002 43469 42879 42284 41539 40729 40038 39362 38709 38097 37373 36924 36638 36487 36441 36517 36683 36946 37473 37856 38462 39066 39776 40386 41041 41785 42415 43108 43727 44395 45005 45459 45804 46193 46541 46832 47183 47432 47630 47809 47934 48049 48161 48274 48319 48350 48411 48435 48463 48508 
45449 43704 42982 42383 41749 40946 40063 39281 38532 37906 37284 36648 36203 35926 35803 35828 35988 36229 36615 37077 37731 38399 39065 39767 40489 41202 41972 42643 43315 44021 44669 45267 45718 46065 46427 46763 47036 47369 47633 47800 47924 48036 48170 48287 48312 48397 48431 48451 48476 48510 
45960 43860 43196 42472 41754 41046 40265 39332 38518 37762 37096 36470 35835 35443 35164 35193 35242 35452 35850 36355 36881 37594 38336 39107 39881 40655 41406 42206 42921 43617 44348 45015 45570 45948 46324 46665 46950 47236 47584 47779 47953 48066 48165 48287 48354 48441 48439 48470 48494 48542 
46321 44357 43336 42566 41852 40995 40260 39477 38570 37709 36968 36306 35724 35135 34695 34494 34540 34721 35030 35521 36051 36742 37607 38411 39256 40045 40912 41720 42452 43228 43966 44651 45297 45819 46199 46575 46906 47194 47449 47775 47954 48070 48198 48301 48382 48449 48477 48513 48525 48587 
46698 44738 43780 42849 41853 41067 40277 39434 38585 37647 36855 36086 35461 34867 34403 34005 33908 33932 34247 34676 35233 35948 36747 37608 38561 39485 40346 41233 42074 42822 43557 44314 44987 45629 46151 46496 46836 47138 47420 47665 47909 48110 48222 48340 48397 48492 48519 48577 48597 48613 
47088 44964 44081 43124 42193 41111 40231 39387 38525 37606 36574 35700 34930 34361 33893 33628 33417 33319 33493 33771 34354 35056 35914 36838 37772 38793 39786 40710 41596 42433 43193 43979 44681 45363 45960 46457 46778 47110 47385 47638 47883 48104 48244 48368 48484 48515 48588 48626 48648 48682 
47445 45196 44315 43374 42457 41443 40320 39236 38133 37162 36183 35208 34306 33598 33071 32762 32619 32680 32838 33114 33596 34228 35076 35970 37018 38076 39190 40228 41237 42113 42911 43678 44416 45106 45750 46333 46716 47059 47348 47613 47855 48061 48275 48403 48527 48575 48639 48692 48720 48793 
47829 45442 44499 43561 42575 41566 40448 39062 37760 36654 35551 34517 33618 32744 32085 31756 31580 31611 31882 32266 32891 33419 34119 35142 36157 37368 38463 39673 40719 41756 42627 43394 44160 44872 45536 46168 46689 47049 47330 47619 47870 48081 48243 48449 48570 48691 48739 48783 48823 48888 
48233 45706 44692 43719 42648 41591 40291 38975 37485 36023 34819 33815 32913 31862 31134 30617 30473 30411 30648 31150 31862 32659 33493 34361 35353 36515 37830 39024 40240 41346 42351 43198 44039 44725 45427 46081 46590 47023 47351 47608 47867 48111 48305 48427 48621 48758 48863 48928 48967 49057 
48612 45998 44863 43842 42729 41503 40140 38734 37168 35725 34179 32870 31824 30895 30014 29472 29169 29202 29340 29862 30495 31555 32626 33807 34728 35795 37054 38420 39727 40959 42043 43017 43913 44662 45335 45988 46554 47098 47451 47704 47920 48142 48367 48539 48661 48865 49004 49051 49129 49180 
48967 46246 45066 43989 42809 41503 39972 38368 36801 35122 33706 31826 30548 29609 28868 28311 27852 27647 27698 28367 29064 30148 31326 32745 34125 35247 36505 37835 39166 40529 41739 42788 43755 44570 45316 45991 46585 47135 47580 47884 48056 48266 48465 48651 48838 48943 49054 49223 49257 49329 
49399 46572 45292 44108 42898 41386 39805 38034 36422 34698 32736 31234 29772 28810 27972 27284 26908 26678 26587 26824 27363 28601 29989 31345 32955 34552 35872 37304 38734 40151 41484 42626 43688 44527 45309 46038 46652 47235 47685 48040 48303 48445 48642 48814 48962 49113 49234 49298 49433 49527 
49776 46847 45483 44230 43007 41341 39517 37754 35836 33872 32109 30631 29292 28085 27218 26549 26114 25837 25661 25772 26191 26830 28281 29843 31554 33399 35129 36551 38088 39670 41121 42530 43689 44613 45396 46121 46754 47369 47875 48296 48554 48748 48905 49028 49161 49267 49370 49500 49593 49694 
50093 47101 45710 44361 43064 41289 39397 37467 35476 33151 31438 30035 28813 27717 26533 25814 25311 24957 24794 24948 25232 25762 26728 28088 30056 32023 34056 35825 37380 39028 40612 42184 43564 44680 45639 46389 46988 47553 48045 48547 48928 49142 49249 49368 49437 49525 49593 49670 49747 49885 
50401 47308 45899 44498 43093 41276 39190 37192 34936 32694 31025 29522 28320 27213 26200 25292 24688 24303 24121 24157 24333 24850 25600 26686 28360 30611 32770 34896 36689 38367 40031 41723 43234 44528 45655 46609 47375 47990 48421 48869 49255 49552 49704 49737 49808 49869 49929 49961 49956 50152 
50697 47499 46046 44632 43166 41214 39033 36811 34292 32215 30551 29077 27785 26716 25694 24881 24133 23628 23410 23368 23560 23982 24666 25621 26926 28912 31544 33750 36001 37763 39473 41207 42814 44326 45570 46662 47556 48278 48856 49382 49702 49992 50164 50201 50279 50285 50326 50316 50339 50455 
50897 47701 46229 44731 43215 41150 38858 36525 33823 31886 30128 28535 27374 26199 25229 24441 23614 22987 22704 22686 22808 23181 23818 24565 25791 27356 29873 32458 34888 37111 38815 40710 42451 44142 45445 46637 47640 48439 49179 49758 50263 50624 50709 50752 50798 50771 50798 50794 50794 50786 
51102 47850 46325 44788 43223 41064 38703 36303 33522 31464 29737 28219 26843 25726 24748 23930 23266 22632 22235 22104 22175 22483 23036 23741 24761 26191 28105 30886 33527 36082 38184 40070 41980 43766 45322 46581 47720 48617 49417 50062 50651 51069 51411 51542 51426 51391 51355 51337 51294 51257 
51313 47915 46360 44811 43179 40981 38580 35968 33189 31101 29360 27838 26469 25291 24321 23421 22749 22197 21775 21525 21512 21848 22224 22957 23929 25163 26749 28912 31995 34817 37454 39328 41292 43204 45011 46522 47770 48867 49633 50372 50980 51491 51922 52168 52270 52200 52048 51983 51904 51798 
51421 47950 46359 44780 43069 40848 38348 35568 32799 30764 28968 27371 26065 24877 23802 22983 22328 21738 21319 21057 21012 21180 21617 22177 23116 24263 25783 27701 30411 33471 36253 38632 40627 42628 44513 46151 47621 48860 49901 50719 51321 51912 52367 52725 52906 52933 52923 52812 52650 52431 
51371 47910 46282 44651 42835 40601 38087 35014 32488 30435 28615 26991 25634 24469 23395 22503 21782 21316 20897 20636 20484 20632 20962 21558 22385 23449 24792 26515 28803 31964 34980 37806 39905 41913 43926 45776 47362 48748 49852 50822 51670 52307 52842 53228 53464 53597 53611 53625 53565 53172 
51232 47751 46104 44472 42635 40293 37784 34593 32102 30018 28259 26687 25253 24022 23018 22063 21378 20786 20368 20146 20068 20142 20407 20942 21765 22758 23969 25615 27618 30270 33702 36740 39222 41269 43352 45287 47025 48491 49727 50823 51737 52574 53202 53759 54109 54222 54317 54333 54324 54144 
50989 47475 45864 44252 42405 39956 37188 34085 31674 29635 27835 26270 24900 23615 22538 21679 20869 20398 19976 19692 19629 19602 19943 20411 21121 22092 23282 24777 26598 29006 32306 35527 38449 40572 42711 44754 46604 48243 49682 50736 51759 52608 53388 54046 54579 54900 55019 55042 55059 54973 
50641 47165 45502 43869 41966 39510 36755 33644 31163 29097 27336 25821 24369 23223 22192 21241 20518 19930 19489 19223 19148 19222 19461 19929 20578 21470 22551 23959 25694 27935 30754 34352 37449 39980 42105 44261 46186 48015 49406 50685 51684 52690 53497 54239 54860 55299 55558 55763 55847 55762 
50129 46698 45037 43448 41482 38945 36208 33057 30701 28684 26928 25289 23964 22786 21722 20846 20097 19511 19103 18808 18715 18787 18991 19406 20119 20986 22055 23338 25023 27016 29632 33138 36477 39423 41600 43763 45827 47737 49280 50692 51843 52744 53595 54357 55080 55587 55908 56153 56353 56632 
49524 46132 44466 42903 40878 38331 35597 32497 30119 28175 26447 24926 23548 22288 21266 20417 19688 19091 18667 18403 18273 18307 18577 18978 19584 20374 21467 22677 24282 26250 28625 31947 35351 38562 41031 43225 45369 47410 49116 50590 51794 52856 53804 54588 55268 55861 56208 56528 56752 57215 
48742 45446 43775 42246 40148 37572 34796 31730 29570 27609 25846 24410 23078 21908 20854 19932 19243 18665 18241 17921 17863 17908 18109 18544 19173 19931 20977 22238 23627 25515 27699 30498 34363 37603 40281 42537 44782 46827 48733 50284 51670 52789 53826 54739 55545 56211 56669 56917 57142 57670 
47727 44473 42928 41405 39213 36724 33780 30996 28842 26961 25311 23786 22501 21322 20386 19532 18756 18205 17741 17517 17415 17463 17723 18081 18648 19421 20410 21651 23035 24757 26869 29384 33066 36520 39611 41842 44194 46340 48314 49949 51461 52689 53754 54717 55616 56351 56933 57332 57638 58154 
46535 43288 41800 40244 38037 35577 32457 30008 27948 26084 24501 23091 21842 20735 19770 18954 18282 17661 17329 17065 17003 17059 17249 17715 18287 19011 19946 21149 22529 24171 26100 28472 31605 35411 38669 41277 43554 45758 47892 49609 51196 52462 53558 54630 55528 56353 57054 57494 57907 58617 
45441 42255 40803 39181 36944 34398 31387 29001 27031 25275 23721 22417 21161 20084 19204 18418 17774 17291 16864 16645 16568 16606 16897 17230 17819 18516 19457 20594 21957 23559 25412 27640 30530 34456 37736 40527 42847 45227 47274 49214 50802 52237 53427 54481 55464 56331 57092 57597 58021 58898 
44230 41113 39736 38045 35866 33316 30484 28192 26279 24612 23123 21795 20632 19638 18752 18006 17351 16899 16501 16304 16196 16289 16439 16883 17445 18203 19103 20186 21441 22908 24698 26904 29482 33249 36706 39881 42183 44506 46690 48740 50405 51891 53152 54287 55273 56225 57021 57652 58099 59082 
42775 39931 38629 36861 34650 32308 29462 27296 25520 23940 22518 21206 20152 19192 18286 17578 16981 16452 16187 15944 15881 15896 16178 16508 17014 17717 18632 19726 20978 22436 24133 26166 28652 31926 35593 39002 41568 43850 46169 48236 49986 51547 52849 54023 55091 56018 56932 57588 58104 59127 
41282 38546 37256 35419 33323 30942 28313 26394 24744 23234 21884 20690 19608 18687 17905 17183 16650 16170 15803 15630 15559 15664 15824 16177 16689 17382 18250 19266 20506 21885 23573 25497 27820 30792 34685 38107 40864 43223 45533 47647 49559 51207 52557 53757 54833 55847 56724 57467 58044 59126 
39859 37272 35888 34053 32038 29508 27164 25350 23776 22348 21181 20090 19041 18218 17430 16829 16292 15883 15528 15324 15273 15311 15569 15912 16420 17026 17856 18875 20109 21430 22936 24865 27168 29859 33596 37219 40216 42611 44932 47100 49047 50720 52201 53391 54593 55595 56500 57329 57959 59125 
38438 36072 34533 32768 30794 28231 26161 24406 22919 21578 20381 19340 18472 17703 16994 16420 15967 15554 15246 15064 15029 15082 15254 15598 16040 16650 17482 18451 19663 21029 22530 24287 26413 29036 32620 36221 39466 41887 44297 46478 48560 50244 51810 53118 54249 55287 56282 57111 57824 59006 
36884 34641 33236 31487 29510 27068 25187 23579 22114 20849 19656 18681 17847 17109 16548 16021 15592 15229 14990 14826 14774 14818 15042 15337 15794 16409 17171 18073 19217 20522 22022 23755 25784 28204 31336 35246 38621 41282 43653 45855 48037 49801 51415 52723 53877 54987 55976 56855 57619 58873 
35614 33292 31888 30179 28324 26085 24221 22785 21397 20200 19062 18158 17315 16617 16040 15572 15225 14934 14718 14581 14550 14634 14792 15135 15593 16158 16885 17722 18823 20059 21517 23274 25196 27464 30429 34402 37751 40644 42937 45271 47368 49348 50914 52352 53562 54656 55645 56566 57403 58686 
34479 32193 30728 29121 27244 24949 23264 21986 20708 19620 18508 17642 16868 16183 15615 15164 14893 14642 14462 14360 14339 14421 14594 14886 15326 15914 16596 17442 18484 19675 21078 22655 24645 26851 29606 33323 36875 39986 42310 44587 46775 48783 50433 51905 53180 54272 55294 56244 57087 58459 
33523 31221 29724 28214 26344 24217 22589 21165 20037 19075 18080 17211 16480 15816 15290 14865 14558 14327 14188 14154 14166 14214 14391 14696 15132 15659 16321 17147 18136 19292 20549 22224 24035 26222 28816 32443 36043 39241 41618 43976 46199 48228 49982 51462 52749 53938 54955 55877 56781 58241 
32620 30306 28884 27482 25505 23596 22026 20591 19507 18504 17646 16875 16148 15520 14992 14603 14279 14036 13925 13879 13927 14060 14224 14512 14941 15444 16125 16875 17824 18907 20170 21728 23557 25550 28107 31396 35148 38432 41054 43378 45543 47674 49464 51064 52364 53559 54575 55507 56383 57978 
31932 29553 28192 26706 24843 23053 21586 20232 19141 18131 17274 16532 15884 15322 14742 14377 14019 13782 13656 13641 13734 13855 14100 14368 14753 15255 15870 16635 17530 18577 19707 21221 22994 25010 27449 30463 34375 37716 40402 42694 45023 47032 48923 50527 51932 53143 54172 55126 56060 57710 
31276 28971 27546 26098 24337 22675 21291 19975 18928 17893 17017 16184 15654 15069 14601 14170 13844 13641 13524 13476 13479 13658 13889 14240 14578 15064 15649 16406 17266 18255 19370 20713 22393 24433 26804 29754 33578 36920 39831 42096 44309 46432 48368 49978 51505 52725 53798 54729 55651 57438 
30758 28446 27165 25757 24005 22457 21076 19880 18752 17744 16843 16057 15374 14883 14464 14068 13774 13529 13399 13293 13382 13441 13703 14040 14434 14910 15513 16199 16993 17935 19036 20331 21941 23824 26188 28998 32662 36093 39181 41406 43763 45889 47861 49539 51032 52290 53407 54351 55285 57146 
30333 28047 26816 25482 23865 22342 20965 19828 18728 17730 16834 16010 15330 14770 14445 14065 13698 13452 13289 13262 13201 13331 13527 13805 14243 14790 15293 15980 16755 17675 18703 19975 21489 23292 25545 28245 31993 35368 38424 40870 43125 45247 47280 49040 50522 51843 52969 53971 54895 56815 
29994 27762 26625 25308 23888 22345 20975 19854 18787 17720 16862 16034 15365 14810 14418 13991 13694 13420 13305 13122 13211 13226 13358 13662 13973 14555 15102 15762 16558 17409 18411 19632 21093 22840 24945 27523 31174 34587 37779 40291 42508 44686 46659 48481 50019 51398 52565 53519 54502 56467 
29729 27644 26563 25310 24017 22352 21174 20012 18886 17879 17047 16257 15480 14848 14363 14026 13739 13500 13241 13183 13109 13168 13291 13501 13904 14287 14876 15538 16333 17163 18127 19336 20710 22368 24454 26920 30246 33850 37129 39681 41911 44116 46076 47944 49545 50978 52130 53141 54116 56063 
29471 27616 26542 25591 24214 22583 21373 20194 19057 18168 17262 16442 15716 15056 14531 14129 13847 13544 13358 13156 13168 13161 13236 13493 13758 14108 14660 15321 16043 16876 17847 19012 20359 22007 24024 26362 29334 33119 36401 39088 41331 43444 45524 47379 49033 50449 51665 52731 53696 55677 
29362 27694 26702 25768 24520 22894 21606 20502 19518 18483 17585 16734 15955 15375 14789 14239 13984 13696 13440 13305 13201 13189 13241 13388 13656 14018 14459 15087 15767 16545 17553 18670 20032 21640 23613 25909 28712 32340 35599 38512 40660 42892 44957 46866 48548 49949 51219 52264 53290 55302 
29378 27830 26860 26003 24759 23316 22076 20916 19895 18864 17932 17123 16372 15673 15042 14528 14154 13872 13625 13436 13333 13231 13271 13389 13609 13941 14355 14837 15541 16288 17137 18267 19685 21262 23190 25447 28162 31750 34862 37827 40096 42299 44364 46260 47965 49375 50745 51826 52825 54912 
29424 28008 27184 26321 25156 24051 22544 21400 20314 19306 18459 17561 16681 16000 15464 14853 14434 14164 13801 13597 13460 13388 13357 13453 13604 13865 14262 14707 15274 16045 16914 17924 19273 20857 22823 25009 27665 31212 34149 37051 39437 41689 43783 45691 47415 48915 50208 51367 52410 54511 
29564 28258 27531 26600 25813 24652 23138 21925 20890 19908 18954 18032 17276 16518 15872 15261 14820 14343 14064 13815 13613 13491 13482 13495 13649 13859 14173 14688 15136 15746 16606 17663 18912 20491 22359 24584 27206 30622 33526 36336 38683 40965 43140 45020 46794 48362 49708 50856 51913 54080 
29700 28543 27882 27092 26276 25143 23950 22545 21525 20439 19445 18659 17832 17025 16331 15723 15177 14801 14370 14131 13897 13694 13608 13608 13718 13851 14206 14550 15002 15625 16438 17382 18600 20129 21962 24108 26727 30065 33058 35793 37981 40139 42377 44445 46249 47807 49165 50370 51459 53591 
29873 28825 28266 27601 26768 25907 24793 23251 22161 21104 20138 19281 18378 17642 16892 16241 15716 15159 14737 14377 14193 13985 13815 13747 13784 13923 14168 14503 14959 15524 16238 17209 18425 19878 21630 23635 26169 29476 32528 35249 37467 39532 41596 43717 45531 47182 48566 49775 50917 53128 
30008 29164 28692 28022 27336 26534 25440 24139 22873 21893 20844 19890 19104 18255 17510 16887 16226 15709 15124 14838 14475 14236 14096 13969 13985 14028 14202 14527 14850 15381 16095 16950 18198 19608 21315 23304 25762 28919 31926 34689 36890 38887 40907 42845 44865 46569 47958 49184 50358 52658 
30219 29470 29096 28560 27857 27108 26234 25146 23695 22605 21599 20702 19772 18929 18195 17365 16810 16221 15688 15228 14914 14558 14315 14135 14066 14072 14220 14351 14760 15298 16026 16912 17956 19378 21053 23001 25472 28551 31317 34025 36374 38326 40256 42163 43997 45846 47374 48613 49797 52115 
30380 29813 29466 28998 28370 27713 26962 25875 24662 23415 22428 21388 20528 19692 18815 18128 17437 16768 16231 15765 15257 14944 14639 14417 14301 14288 14291 14428 14745 15176 15842 16675 17749 19180 20770 22773 25126 28220 30832 33380 35678 37703 39674 41539 43246 44971 46613 47954 49146 51548 
30559 30099 29799 29445 28974 28292 27532 26718 25658 24255 23201 22154 21284 20396 19593 18828 18117 17485 16817 16295 15836 15331 14969 14706 14522 14487 14459 14561 14830 15318 15815 16647 17705 18958 20524 22517 25045 27925 30362 32833 34982 36955 39098 40891 42616 44152 45707 47230 48497 50963 
30675 30354 30108 29836 29407 28862 28170 27470 26439 25292 24067 23011 22069 21226 20333 19581 18857 18146 17471 16853 16345 15762 15468 15138 14949 14788 14675 14773 15067 15388 15944 16651 17710 18939 20413 22320 24959 27536 29939 32373 34406 36266 38300 40224 41935 43440 44958 46329 47787 50404 
30766 30524 30431 30200 29858 29439 28791 28091 27209 26287 24905 23910 22923 22021 21140 20409 19575 18873 18155 17521 16937 16305 15906 15522 15263 15058 14962 15071 15246 15582 16106 16853 17769 19006 20438 22282 24835 27187 29639 31958 33895 35656 37608 39420 41231 42802 44278 45543 46842 49666 
30806 30705 30734 30503 30227 29869 29311 28665 27962 26968 25911 24788 23798 22888 22049 21119 20350 19525 18779 18161 17516 17006 16432 15943 15581 15405 15375 15367 15547 15833 16302 17068 18008 19107 20582 22318 24719 26952 29284 31475 33470 35085 36955 38613 40409 42156 43625 44846 46057 48944 
30848 30862 30917 30747 30499 30222 29749 29226 28621 27687 26865 25617 24708 23720 22786 21929 21100 20284 19501 18790 18215 17443 16927 16463 16089 15827 15666 15744 15826 16133 16671 17322 18293 19360 20796 22547 24834 26934 29026 30999 32891 34580 36375 38003 39649 41249 42891 44110 45386 48024 
30756 30970 31035 30930 30785 30550 30199 29704 29111 28512 27672 26558 25498 24510 23551 22708 21767 21031 20252 19471 18843 18157 17482 16970 16573 16328 16208 16185 16228 16559 17052 17757 18587 19735 21130 23166 25146 27004 28937 30853 32400 33985 35804 37397 38982 40478 41961 43386 44705 47238 
30640 31015 31053 31072 30986 30821 30577 30135 29634 29107 28363 27502 26241 25294 24368 23412 22545 21664 20965 20207 19405 18833 18163 17556 17109 16884 16692 16566 16759 17050 17400 18172 19028 20120 21584 23575 25349 27157 28971 30665 32082 33588 35210 36792 38366 39795 41180 42536 43886 46497 
30351 30899 31014 31125 31124 31002 30814 30460 30072 29660 28916 28239 26945 25973 25064 24116 23277 22460 21610 20862 20125 19384 18764 18148 17699 17350 17184 17175 17281 17441 18047 18637 19587 20720 22415 23991 25658 27452 29060 30606 31919 33305 34742 36162 37700 39137 40476 41742 42988 45786 
30011 30691 30866 31061 31054 31062 30951 30726 30471 30096 29634 28769 27833 26627 25785 24877 23975 23157 22390 21500 20824 20113 19472 18833 18364 18045 17863 17751 17769 18149 18598 19335 20246 21435 23123 24694 26162 27714 29201 30506 31783 33084 34390 35771 37048 38436 39789 41014 42212 44883 
29544 30357 30640 30809 30947 31062 30961 30874 30771 30434 30000 29196 28506 27321 26353 25505 24691 23821 23049 22288 21451 20798 20201 19514 19031 18682 18429 18425 18566 18820 19367 20025 20955 22514 23884 25217 26713 28108 29487 30571 31701 32924 34223 35430 36625 37806 39046 40367 41496 44043 
28803 29882 30267 30545 30712 30805 30936 30977 30893 30649 30348 29642 29059 27928 27041 26255 25363 24485 23759 23025 22239 21616 20959 20243 19776 19409 19172 19135 19283 19632 20117 20915 22193 23389 24657 25950 27301 28493 29701 30753 31854 32993 34061 35225 36345 37425 38512 39562 40696 43186 
28036 29260 29699 30057 30373 30557 30773 30927 30905 30789 30548 29940 29435 28617 27616 26751 25992 25273 24402 23696 22965 22341 21690 21019 20550 20153 19938 19925 20130 20487 21090 22102 23177 24414 25502 26760 27921 29074 29986 30915 31987 33022 34068 35080 36097 37072 38136 38997 39993 42431 
27224 28573 29074 29457 29883 30175 30475 30812 30861 30821 30647 30131 29742 29094 28142 27393 26670 25831 25220 24463 23718 23085 22423 21817 21336 20968 20798 20835 21066 21446 22380 23288 24362 25333 26483 27549 28643 29531 30429 31347 32292 33190 34182 35096 35986 36845 37798 38621 39489 41545 
26058 27699 28424 28874 29327 29755 30225 30512 30712 30755 30505 30280 29946 29430 28615 27938 27312 26552 25787 25184 24551 23941 23325 22757 22248 21889 21744 21864 22193 22963 23601 24500 25398 26416 27382 28426 29224 30059 30871 31739 32630 33494 34289 35140 35962 36825 37583 38294 39083 40912 
24549 26669 27335 27967 28482 29145 29780 30210 30375 30380 30392 30264 30097 29715 29093 28470 27766 27202 26543 25937 25268 24657 24120 23612 23175 22852 22747 23013 23644 24155 24915 25616 26516 27413 28305 29095 29884 30563 31370 32229 33033 33824 34643 35373 36087 36791 37477 38158 38780 40369 
23355 25225 26089 27006 27730 28438 29049 29512 29863 30088 30248 30266 30186 29876 29427 28844 28364 27762 27223 26703 26040 25537 25123 24623 24160 23986 24289 24537 24877 25462 26004 26799 27580 28370 29133 29822 30480 31248 31994 32748 33548 34306 34999 35611 36290 36900 37493 38011 38609 40025 
22086 24119 24887 25667 26503 27374 28298 28897 29393 29746 30027 30053 30108 29971 29724 29274 28789 28419 27909 27392 26906 26463 26091 25728 25571 25496 25466 25851 26067 26567 27214 27933 28673 29279 29900 30502 31215 31927 32608 33377 34081 34744 35318 35964 36514 37092 37561 38091 38525 39780 
20920 23027 23996 24677 25588 26528 27204 27904 28486 29052 29524 29841 29966 30047 29913 29667 29377 28975 28602 28197 27919 27652 27372 27075 26645 26638 26711 26870 27294 27794 28342 29031 29509 30114 30618 31303 31970 32637 33342 33990 34660 35205 35806 36354 36879 37328 37790 38147 38589 39603 
19796 21970 22904 23755 24755 25598 26437 27114 27803 28373 28876 29253 29591 29828 29957 29917 29877 29667 29455 29157 28926 28593 28299 28013 27830 27699 27761 28046 28409 28854 29406 29825 30372 30872 31458 32102 32741 33383 34049 34615 35204 35769 36279 36772 37179 37585 38029 38317 38756 39570 
18666 20885 21845 22826 23854 24833 25683 26438 27127 27772 28395 28875 29334 29615 29893 30176 30207 30130 30085 29828 29586 29346 29399 29054 28766 28757 28968 29161 29554 29943 30261 30679 31179 31715 32304 32944 33481 34093 34668 35268 35770 36247 36722 37157 37534 37876 38229 38596 38862 39684 
17591 19844 20959 21924 22968 24029 24899 25728 26531 27206 27942 28476 28964 29496 29823 30290 30478 30571 30511 30436 30466 30345 30133 29947 29818 29850 29966 30159 30471 30694 31085 31487 32030 32605 33155 33685 34255 34809 35430 35877 36327 36743 37169 37533 37862 38219 38478 38770 39072 39701 
16688 18988 20020 21064 22089 23074 24126 25069 25903 26696 27428 28120 28691 29246 29772 30319 30683 30898 30987 31171 31150 31032 30962 30809 30767 30770 30873 31071 31236 31464 31923 32377 32887 33431 33943 34463 34984 35515 36033 36506 36851 37230 37618 37948 38255 38498 38752 39026 39228 39857 
15817 18153 19122 20238 21229 22253 23280 24222 25300 26142 26916 27713 28449 29135 29701 30341 30844 31149 31445 31689 31730 31753 31791 31713 31656 31691 31769 31783 31959 32311 32726 33192 33700 34196 34702 35177 35726 36199 36629 37040 37386 37716 38043 38285 38569 38839 39037 39203 39420 39955 
14999 17354 18396 19443 20455 21470 22454 23562 24455 25606 26470 27334 28120 28883 29504 30261 31073 31442 31917 32133 32350 32484 32560 32457 32458 32478 32395 32484 32758 33108 33493 34020 34505 35004 35479 35970 36395 36776 37145 37566 37911 38169 38402 38709 38899 39092 39320 39475 39638 40114 
14311 16713 17694 18653 19708 20704 21796 22788 23922 24872 26036 26981 27834 28603 29411 30149 31180 31669 32243 32524 32929 33204 33269 33130 33168 33056 33060 33230 33475 33811 34270 34784 35253 35727 36196 36595 36992 37396 37678 38071 38334 38584 38786 39013 39242 39387 39493 39718 39879 40228 
13780 16000 16996 17949 18953 20003 20962 22163 23231 24397 25454 26554 27503 28360 29223 30105 31227 31800 32514 33030 33421 33798 33953 33872 33746 33723 33725 33898 34186 34587 34989 35479 35964 36415 36832 37192 37535 37894 38197 38486 38774 38931 39198 39344 39474 39664 39785 39919 40051 40398 
13200 15394 16350 17265 18277 19292 20432 21470 22694 23827 24957 26088 27181 28176 29100 30032 31272 31995 32823 33390 33935 34320 34583 34335 34326 34251 34291 34540 34869 35216 35668 36150 36610 37026 37401 37785 38104 38363 38671 38911 39107 39306 39448 39657 39767 39910 40014 40157 40240 40506 
12641 14770 15742 16695 17667 18693 19824 20971 22097 23290 24493 25520 26777 27877 28897 29934 31259 32206 33026 33777 34391 34847 35074 34852 34796 34887 34967 35124 35441 35864 36297 36796 37185 37563 37944 38310 38576 38833 39049 39306 39436 39683 39808 39966 40116 40226 40328 40402 40497 40709 
12680 14235 15210 16122 17135 18157 19268 20397 21594 22805 23931 25144 26366 27570 28737 29781 31288 32387 33255 34085 34779 35283 35446 35353 35303 35431 35538 35776 36080 36441 36904 37337 37752 38039 38413 38724 39007 39203 39453 39601 39825 40009 40182 40340 40446 40549 40655 40757 40786 40959 
13045 13765 14706 15645 16645 17693 18818 19927 21090 22209 23531 24790 25981 27228 28538 29788 31269 32507 33455 34438 35124 35692 35820 35734 35785 35895 36132 36263 36616 37069 37417 37870 38132 38532 38822 39125 39350 39592 39801 39967 40182 40363 40519 40669 40791 40866 40943 41019 41072 41219 
13440 13744 14308 15195 16240 17279 18358 19496 20629 21889 23083 24298 25574 26943 28301 29727 31308 32622 33673 34711 35439 36019 36171 36138 36255 36406 36591 36759 37098 37524 37968 38333 38617 38990 39239 39454 39712 39956 40120 40327 40526 40695 40884 40967 41090 41171 41249 41292 41323 41446 
13889 14105 14232 14868 15846 16858 17894 19055 20203 21387 22635 23932 25302 26629 28019 29484 31299 32725 33850 34931 35776 36263 36507 36556 36683 36833 36995 37245 37650 38014 38381 38709 39060 39289 39609 39841 40019 40204 40425 40652 40856 41016 41153 41292 41390 41467 41506 41528 41623 41693 
14274 14414 14493 14588 15457 16420 17504 18647 19835 21006 22295 23595 25000 26394 27738 29329 31167 32811 33966 35136 35961 36538 36758 36856 37064 37273 37483 37619 37999 38435 38757 39084 39389 39671 39903 40071 40287 40492 40727 40962 41138 41314 41444 41567 41617 41726 41774 41800 41823 41909 
14598 14644 14701 14777 15050 16027 17118 18209 19426 20610 21901 23288 24649 26010 27540 29156 31054 32837 34101 35298 36316 36774 36959 37206 37408 37607 37813 38065 38407 38738 39135 39427 39713 39937 40183 40392 40556 40774 41005 41217 41427 41565 41680 41817 41895 41941 41985 42041 42056 42122 
14884 14900 14941 14981 15037 15685 16734 17893 19043 20253 21580 22894 24308 25807 27301 28929 30846 32895 34251 35505 36506 36979 37246 37519 37747 37956 38190 38352 38683 39070 39383 39699 40002 40256 40399 40623 40799 41002 41254 41487 41677 41810 41941 42042 42115 42160 42213 42251 42274 42295 
15147 15101 15118 15135 15186 15337 16404 17559 18742 20008 21267 22652 24084 25588 27132 28802 30692 32871 34390 35622 36690 37209 37494 37750 38081 38253 38410 38686 39034 39352 39721 39929 40190 40451 40657 40842 41003 41242 41495 41696 41912 42019 42152 42228 42313 42371 42401 42424 42425 42474 
15385 15328 15315 15326 15359 15375 16094 17203 18430 19642 21019 22410 23851 25356 26966 28638 30546 32742 34483 35780 36837 37389 37673 38014 38348 38545 38755 38932 39271 39627 39962 40210 40427 40633 40876 41057 41223 41465 41719 41931 42106 42233 42366 42443 42500 42531 42569 42607 42615 42638 
16056 15879 15801 15769 15722 15719 15725 16529 17723 18986 20351 21745 23213 24749 26485 28254 30195 32600 34565 36090 37119 37711 38054 38474 38827 39152 39417 39612 39773 40183 40454 40675 40871 41119 41309 41474 41683 41947 42180 42379 42564 42674 42777 42835 42870 42897 42885 42917 42928 42935 
