P2
100 50
65535
7864 8054 8170 8231 8326 8393 8523 8620 8837 9012 9237 9469 9753 10061 10343 10831 11237 11755 12227 12855 13514 14190 14929 15736 16544 17283 18257 19082 19923 20825 21749 22569 23461 24304 25022 25716 26350 27015 27560 28025 28342 28702 28917 29055 29072 29055 28920 28814 28621 28413 28209 27940 27683 27454 27197 26970 26736 26560 26468 26377 26234 26181 26122 26077 26031 25968 26017 26056 26144 26180 26240 26279 26372 26449 26548 26600 26703 26851 26997 27161 27291 27518 27800 28003 28311 28568 28911 29265 29619 30030 30465 30862 31245 31624 32075 32392 32817 33124 33496 34202 
8834 8985 9050 9216 9320 9413 9555 9716 9833 10026 10220 10431 10607 10877 11253 11615 11945 12460 12873 13449 14066 14689 15307 16108 16810 17602 18401 19247 20090 20993 21900 22745 23662 24559 25277 25994 26611 27303 27893 28347 28801 29094 29292 29381 29335 29163 28911 28658 28361 27982 27482 27120 26750 26336 25938 25540 25187 24792 24422 24083 23801 23483 23129 22835 22563 22302 22096 21901 21691 21535 21385 21231 21101 20959 20854 20794 20766 20787 20813 20856 20918 20959 21118 21369 21533 21755 22030 22338 22660 23044 23602 24130 24808 25323 25777 26276 26669 27141 27510 28405 
9454 9600 9687 9817 9913 9969 10099 10270 10379 10514 10726 10890 11072 11405 11713 12064 12392 12842 13282 13805 14408 14966 15601 16341 17011 17775 18576 19388 20246 21131 22044 22883 23806 24677 25440 26162 26806 27539 28114 28641 29051 29364 29523 29582 29553 29356 29053 28708 28353 27892 27325 26955 26454 26012 25544 25064 24578 24189 23642 23225 22828 22337 21923 21598 21314 20987 20657 20397 20130 19880 19665 19409 19243 19122 18949 18843 18710 18634 18555 18556 18571 18626 18684 18756 18925 19135 19305 19522 19714 20054 20460 20831 21220 21640 21998 22406 22809 23393 23943 25248 
10012 10137 10247 10371 10462 10520 10640 10786 10908 11008 11180 11384 11686 11924 12218 12501 12842 13240 13649 14191 14740 15262 15898 16630 17261 18020 18833 19595 20435 21363 22251 23070 24018 24891 25647 26393 27105 27854 28377 28966 29396 29645 29786 29799 29751 29569 29257 28795 28419 27904 27243 26809 26274 25716 25191 24635 24101 23537 22996 22425 21961 21555 21114 20669 20169 19803 19413 19060 18724 18492 18152 17908 17710 17488 17303 17061 16975 16793 16691 16617 16530 16552 16567 16604 16713 16830 16958 17138 17279 17545 17748 18010 18337 18686 18996 19331 19596 20050 20405 21317 
10602 10781 10868 10947 11011 11123 11248 11324 11427 11615 11827 12046 12253 12476 12745 13030 13386 13729 14179 14649 15132 15683 16255 16970 17629 18316 19162 19946 20762 21656 22561 23435 24392 25194 26002 26748 27546 28253 28956 29461 29766 30034 30164 30181 30075 29846 29508 29035 28484 27917 27271 26705 26092 25526 24911 24338 23609 23028 22355 21858 21314 20791 20245 19698 19211 18802 18315 17968 17505 17142 16810 16474 16245 15986 15707 15502 15335 15148 14964 14829 14742 14644 14601 14632 14665 14706 14801 14938 15065 15173 15367 15569 15738 16008 16292 16576 16811 17031 17337 18069 
11194 11404 11477 11527 11621 11742 11898 12038 12184 12338 12478 12658 12835 13064 13365 13614 13911 14309 14743 15155 15637 16120 16762 17362 18037 18702 19572 20359 21184 22081 22888 23874 24797 25630 26450 27239 28124 28882 29561 30005 30336 30568 30670 30658 30526 30285 29902 29426 28812 28099 27377 26646 25963 25293 24658 23988 23324 22561 21950 21312 20630 20085 19450 18919 18362 17870 17307 16826 16414 15951 15597 15218 14812 14519 14225 13990 13750 13556 13350 13135 13031 12915 12832 12715 12730 12751 12825 12853 12905 13060 13166 13301 13461 13608 13787 13974 14200 14407 14670 15203 
11888 12120 12261 12339 12434 12568 12655 12759 12901 13007 13161 13363 13570 13742 13992 14240 14591 14902 15339 15724 16178 16666 17284 17831 18489 19264 20045 20798 21649 22567 23387 24403 25341 26209 27041 27957 28821 29636 30222 30699 30946 31153 31250 31196 31007 30788 30410 29871 29270 28498 27644 26763 26028 25292 24522 23761 22976 22142 21488 20829 20122 19429 18786 18201 17536 16995 16429 15902 15407 14871 14409 14001 13656 13259 12913 12545 12306 12027 11802 11633 11459 11325 11178 11059 10998 10931 10949 10976 10997 11112 11164 11249 11313 11423 11558 11697 11855 11987 12154 12605 
12721 12907 13015 13102 13204 13309 13412 13513 13685 13808 13950 14079 14245 14482 14705 14996 15313 15633 15954 16382 16798 17332 17884 18492 19120 19858 20569 21380 22299 23206 24129 25138 26031 26890 27823 28766 29737 30437 30981 31392 31663 31828 31889 31828 31629 31360 30969 30446 29813 29050 28025 27199 26232 25368 24529 23739 22818 21906 21172 20337 19588 18945 18280 17527 16834 16212 15662 15037 14448 13944 13452 12976 12473 12091 11689 11363 11021 10740 10524 10313 10124 9991 9855 9751 9688 9593 9552 9492 9498 9532 9577 9587 9612 9692 9736 9791 9909 9990 10076 10335 
13497 13687 13894 13983 14049 14130 14251 14332 14467 14586 14736 14931 15122 15301 15535 15794 16036 16381 16711 17119 17578 18055 18622 19135 19842 20570 21270 22150 23037 23875 24919 25933 26839 27718 28794 29854 30648 31261 31775 32139 32408 32536 32590 32500 32299 32004 31620 31033 30387 29644 28799 27657 26631 25622 24723 23818 22818 21857 21027 20114 19276 18467 17743 16951 16292 15626 14895 14280 13682 13078 12494 11993 11551 11100 10663 10344 10003 9750 9458 9292 9189 9106 9012 8863 8808 8768 8694 8628 8569 8536 8569 8574 8579 8617 8628 8649 8667 8683 8747 8903 
14327 14584 14696 14771 14910 15054 15169 15270 15373 15561 15682 15819 16018 16181 16388 16652 16899 17187 17548 17946 18450 18848 19382 19964 20706 21400 22158 23048 23918 24921 25889 26863 27792 28910 29995 30859 31599 32164 32640 33028 33273 33362 33389 33283 33075 32741 32369 31744 31090 30344 29462 28475 27204 26096 25034 24094 23103 22006 21070 20121 19146 18266 17416 16597 15757 15042 14286 13649 13001 12328 11812 11266 10647 10295 9853 9528 9213 9035 8845 8675 8453 8353 8295 8200 8130 8063 8029 7942 7849 7812 7773 7742 7741 7762 7783 7801 7813 7887 7910 7981 
15202 15504 15655 15757 15889 16023 16142 16215 16338 16498 16601 16795 16890 17106 17317 17549 17801 18142 18540 18877 19370 19769 20351 20943 21635 22345 23187 24067 24951 26048 26999 27928 29028 30174 31154 31914 32567 33166 33541 33902 34088 34195 34209 34074 33857 33518 33089 32499 31886 31064 30158 29231 28140 26789 25548 24493 23453 22335 21188 20258 19251 18301 17366 16416 15543 14690 13892 13173 12379 11775 11169 10515 10107 9634 9193 8974 8748 8511 8272 8140 7983 7854 7650 7573 7483 7436 7385 7303 7248 7191 7159 7108 7088 7072 7056 7077 7083 7098 7113 7169 
16157 16476 16590 16715 16872 16965 17053 17206 17346 17446 17641 17744 17945 18125 18352 18627 18923 19193 19572 19969 20358 20951 21505 22093 22750 23500 24384 25225 26227 27187 28114 29192 30403 31419 32273 32979 33638 34130 34510 34843 35005 35159 35156 35023 34762 34342 33931 33329 32658 31881 31013 30016 28951 27822 26435 25078 23956 22840 21706 20553 19442 18396 17473 16437 15493 14585 13702 12922 12035 11337 10683 10054 9548 9124 8795 8514 8237 8047 7894 7657 7476 7321 7237 7087 6932 6820 6788 6706 6645 6587 6560 6505 6506 6490 6466 6455 6439 6418 6415 6492 
17118 17412 17576 17724 17821 17985 18111 18274 18417 18575 18750 18916 19043 19253 19462 19736 20043 20313 20683 21148 21666 22129 22732 23326 24067 24854 25627 26581 27516 28433 29479 30710 31812 32629 33392 34112 34651 35155 35605 35842 36029 36108 36105 35963 35708 35286 34820 34254 33561 32704 31845 30922 29878 28803 27603 26095 24657 23482 22361 21011 19904 18760 17663 16669 15654 14694 13684 12829 11916 11150 10366 9750 9166 8679 8423 8157 7884 7733 7454 7264 7123 6939 6735 6643 6489 6398 6280 6166 6131 6049 6029 5975 5928 5912 5922 5894 5878 5857 5864 5888 
18076 18452 18652 18821 18968 19075 19226 19362 19550 19709 19861 20065 20197 20429 20661 20936 21288 21621 22102 22467 23011 23501 24090 24773 25453 26186 27111 27974 28847 29891 31139 32237 33093 33935 34630 35211 35837 36299 36673 36939 37056 37161 37087 36932 36628 36306 35764 35213 34521 33687 32799 31808 30828 29797 28637 27399 25913 24312 23083 21853 20480 19366 18132 17084 15926 14926 13886 12925 11956 11100 10306 9581 8969 8436 8110 7741 7605 7420 7162 6983 6775 6536 6441 6281 6076 6010 5901 5770 5704 5585 5555 5521 5443 5440 5419 5400 5357 5370 5384 5382 
19120 19506 19707 19884 20055 20163 20359 20505 20702 20889 21075 21307 21521 21815 22102 22356 22662 23119 23472 23964 24468 25034 25595 26129 26935 27764 28540 29430 30470 31694 32740 33640 34502 35215 35915 36527 37030 37452 37810 38016 38161 38162 38085 37910 37640 37230 36775 36212 35573 34702 33888 32863 31827 30780 29729 28521 27303 25810 24078 22761 21465 20048 18857 17644 16514 15386 14303 13230 12244 11279 10441 9617 8946 8350 8005 7588 7366 7076 6889 6740 6498 6330 6169 5960 5823 5696 5557 5446 5335 5276 5175 5148 5076 5037 5018 4971 4976 4974 4964 4989 
20143 20576 20791 20967 21185 21359 21616 21808 22004 22184 22399 22656 22940 23198 23481 23802 24207 24636 25078 25530 26017 26490 27162 27805 28528 29260 30071 31192 32380 33347 34240 35128 35913 36651 37315 37891 38364 38771 39037 39234 39223 39225 39135 38941 38635 38254 37762 37234 36549 35756 34919 33970 32993 31898 30776 29687 28494 27203 25775 23975 22570 21178 19730 18449 17251 16021 14857 13742 12676 11631 10718 9790 9104 8385 8013 7562 7277 6958 6670 6498 6292 6150 5973 5782 5624 5478 5321 5187 5083 4974 4909 4841 4800 4727 4696 4672 4650 4648 4627 4638 
21162 21780 21997 22202 22357 22638 22877 23039 23299 23560 23838 24115 24403 24719 25102 25488 25857 26246 26596 27076 27675 28284 28816 29454 30186 31060 32141 33229 34203 35066 35868 36598 37381 38010 38609 39113 39563 39874 40163 40341 40394 40257 40171 39975 39654 39274 38726 38193 37584 36857 35999 35085 34099 33073 32005 30934 29749 28600 27264 25796 23999 22456 21063 19551 18239 16937 15673 14520 13332 12319 11226 10304 9396 8684 8116 7705 7285 6994 6654 6425 6172 6051 5870 5662 5503 5318 5174 5047 4915 4786 4699 4632 4555 4517 4475 4448 4393 4394 4391 4408 
22288 22927 23162 23355 23637 23954 24193 24444 24783 25075 25379 25701 26003 26293 26670 27037 27513 27895 28445 28892 29399 29957 30566 31302 32208 33334 34191 35033 35857 36575 37262 37992 38638 39282 39742 40284 40654 41010 41197 41412 41415 41366 41167 40942 40609 40235 39747 39189 38638 37988 37040 36228 35250 34294 33267 32180 31091 29881 28698 27400 25952 24110 22461 21050 19414 18067 16742 15448 14267 13050 11990 10915 9965 9077 8400 7909 7366 7088 6674 6463 6184 5944 5815 5649 5455 5275 5117 4994 4826 4720 4610 4505 4425 4362 4321 4287 4255 4237 4237 4271 
23386 24137 24402 24735 25000 25298 25644 25882 26197 26563 26986 27317 27656 28089 28424 28813 29257 29617 30134 30630 31189 31968 32710 33621 34400 35149 35855 36585 37234 37982 38634 39282 39866 40436 40874 41342 41671 42004 42191 42367 42386 42350 42225 41870 41566 41177 40771 40182 39572 38950 38160 37349 36409 35478 34465 33455 32449 31332 30139 28895 27573 26136 24426 22598 21093 19507 18086 16742 15362 14160 12957 11839 10752 9732 8919 8166 7769 7281 6981 6603 6352 6037 5852 5672 5517 5356 5163 5019 4852 4700 4593 4477 4363 4303 4233 4203 4185 4146 4157 4195 
24502 25331 25688 25960 26303 26708 27100 27440 27893 28224 28582 28956 29356 29732 30082 30502 30973 31515 32083 32784 33491 34251 34837 35454 36102 36755 37329 37982 38647 39264 39911 40423 40975 41497 41869 42305 42652 42966 43119 43285 43281 43267 43120 42803 42490 42117 41654 41165 40584 39929 39263 38422 37589 36632 35712 34754 33707 32727 31606 30435 29173 27913 26491 24899 22858 21274 19719 18245 16776 15398 14167 12938 11830 10697 9670 8850 8116 7678 7231 6930 6538 6296 5971 5853 5621 5478 5278 5126 4950 4792 4653 4520 4412 4335 4242 4196 4159 4129 4116 4141 
25673 26507 27003 27353 27823 28194 28556 28948 29355 29762 30168 30596 31063 31543 32027 32654 33182 33713 34252 34828 35457 35987 36555 37025 37566 38132 38723 39354 39951 40510 41037 41565 42023 42514 42876 43283 43529 43825 43998 44166 44144 44177 43994 43684 43356 42976 42598 42116 41601 40924 40317 39520 38682 37812 36937 35995 35068 34128 33056 31968 30799 29576 28256 26854 25387 23440 21648 19999 18476 16954 15591 14289 13031 11922 10795 9763 8902 8134 7687 7263 6956 6566 6321 6005 5888 5662 5509 5303 5147 4963 4817 4657 4521 4412 4336 4237 4200 4152 4115 4131 
26724 27835 28285 28672 29109 29534 29956 30444 31004 31464 32089 32622 33111 33559 33980 34433 34931 35402 35970 36589 37097 37550 37977 38501 38979 39514 40038 40599 41083 41572 42107 42568 42983 43422 43753 44124 44423 44652 44836 44932 44980 45007 44828 44567 44258 43915 43476 43000 42530 41947 41302 40595 39768 38982 38103 37306 36387 35446 34441 33438 32369 31269 30019 28698 27432 25871 24065 22104 20540 18819 17360 16000 14631 13340 12158 10955 9981 9042 8270 7818 7337 7067 6703 6462 6208 6031 5780 5604 5440 5239 5080 4908 4771 4632 4488 4416 4338 4273 4211 4141 
27862 29004 29467 29952 30445 30998 31552 32240 32773 33330 33744 34201 34667 35107 35596 36009 36477 36953 37504 38012 38570 38988 39372 39793 40267 40741 41232 41659 42154 42574 43078 43481 43855 44293 44584 44948 45222 45405 45603 45671 45741 45793 45600 45381 45043 44708 44343 43961 43434 42969 42278 41642 40969 40142 39338 38499 37593 36752 35862 34884 33933 32879 31769 30568 29321 27969 26480 24870 22787 21122 19385 17881 16401 14989 13787 12525 11315 10324 9376 8570 8029 7595 7240 6872 6663 6478 6251 6029 5811 5612 5396 5231 5069 4893 4767 4655 4545 4459 4392 4225 
28889 30074 30677 31282 31989 32591 33201 33684 34176 34633 35166 35604 36009 36429 36872 37352 37852 38288 38905 39417 39852 40240 40569 41006 41468 41845 42297 42695 43156 43553 43905 44341 44679 45080 45351 45658 45934 46119 46317 46405 46490 46486 46347 46171 45853 45549 45205 44830 44358 43864 43346 42701 41955 41202 40462 39683 38910 38077 37152 36252 35399 34477 33413 32334 31174 29907 28563 27253 25630 23711 21779 20131 18518 16971 15567 14273 13052 11911 10769 9759 8977 8292 7860 7496 7254 6993 6802 6503 6292 6070 5849 5658 5459 5307 5133 4997 4882 4764 4649 4461 
29738 31267 32049 32697 33291 33765 34324 34844 35383 35841 36306 36780 37243 37669 38146 38640 39037 39570 40138 40612 41020 41431 41685 42127 42446 42897 43258 43665 43980 44445 44733 45096 45429 45793 46065 46361 46600 46800 46986 47095 47170 47213 47057 46855 46618 46336 46040 45678 45245 44797 44267 43711 43053 42390 41646 40903 40091 39331 38555 37688 36811 35864 34931 33924 32878 31811 30583 29371 27928 26508 24839 22725 21001 19247 17766 16334 14982 13757 12527 11385 10409 9492 8775 8274 7922 7670 7421 7101 6869 6588 6379 6168 5979 5796 5584 5443 5315 5170 5035 4782 
30628 32442 33124 33655 34231 34853 35336 35850 36324 36872 37357 37849 38335 38788 39289 39722 40112 40650 41143 41634 42073 42393 42703 43023 43396 43752 44106 44490 44818 45126 45496 45818 46130 46424 46734 46951 47250 47440 47600 47685 47803 47800 47701 47526 47305 47076 46834 46516 46126 45704 45211 44712 44100 43419 42765 42023 41322 40594 39772 39008 38176 37349 36506 35595 34625 33643 32550 31389 30144 28814 27428 25869 23929 21967 20366 18699 17198 15833 14529 13290 12234 11156 10229 9408 8785 8470 8067 7813 7509 7231 7018 6727 6565 6368 6157 5981 5820 5658 5499 5166 
31521 33267 33878 34431 35041 35598 36097 36735 37247 37839 38308 38793 39302 39714 40223 40654 41120 41564 41942 42549 42944 43255 43566 43844 44242 44563 44901 45243 45496 45852 46140 46451 46774 47058 47347 47599 47817 47999 48168 48295 48395 48430 48378 48176 47995 47800 47584 47309 46942 46573 46150 45681 45156 44531 43922 43202 42551 41817 41070 40361 39530 38771 37894 37077 36218 35327 34350 33301 32180 30967 29679 28330 26901 25296 23210 21435 19788 18270 16843 15496 14322 13125 12075 11100 10232 9603 8968 8640 8214 8003 7729 7423 7230 6958 6791 6590 6351 6219 6075 5689 
32225 33823 34504 35068 35632 36206 36807 37417 38028 38591 39121 39631 40108 40597 41049 41445 41982 42332 42768 43193 43603 44058 44281 44579 44917 45248 45623 45879 46172 46524 46806 47107 47392 47651 47903 48128 48369 48568 48709 48862 48928 48996 48969 48777 48657 48506 48308 48064 47777 47449 47045 46622 46148 45579 45003 44353 43721 43041 42371 41592 40883 40125 39369 38583 37773 36890 35973 35051 34048 33000 31890 30671 29401 27990 26497 24767 22671 21073 19373 17946 16625 15301 14212 13094 12154 11265 10380 9782 9170 8854 8470 8216 7965 7677 7470 7252 7005 6879 6708 6279 
32558 34306 34920 35477 36158 36774 37399 38016 38603 39206 39720 40299 40825 41257 41758 42172 42648 43024 43499 43827 44199 44542 44928 45218 45556 45897 46224 46540 46844 47063 47384 47643 47921 48176 48428 48668 48917 49078 49261 49427 49482 49538 49580 49390 49314 49183 49029 48843 48546 48240 47919 47542 47126 46613 46118 45532 44905 44237 43607 42924 42204 41477 40791 40023 39251 38488 37621 36822 35915 34943 33953 32868 31718 30426 29097 27776 26177 24218 22354 20803 19263 17829 16597 15464 14354 13313 12322 11500 10658 10057 9499 9087 8762 8449 8241 8000 7758 7580 7392 6969 
32814 34498 35145 35866 36501 37137 37799 38476 39076 39655 40288 40818 41369 41844 42370 42773 43258 43633 44054 44433 44763 45065 45342 45779 46098 46388 46694 47069 47358 47622 47905 48150 48447 48660 48898 49164 49378 49593 49714 49906 50006 50058 50123 50022 49930 49848 49698 49592 49353 49074 48767 48433 48080 47593 47115 46620 46054 45487 44860 44184 43560 42856 42177 41513 40694 40041 39236 38382 37623 36765 35844 34912 33835 32714 31503 30227 28897 27505 25962 23971 22234 20674 19273 17909 16768 15631 14511 13535 12590 11768 10981 10350 9798 9346 9089 8778 8529 8360 8134 7674 
32858 34618 35321 36026 36716 37392 38115 38782 39419 40092 40764 41251 41859 42324 42884 43308 43777 44167 44609 44995 45328 45581 45853 46175 46496 46817 47160 47503 47826 48064 48372 48586 48907 49176 49373 49618 49813 50079 50238 50407 50524 50609 50625 50614 50543 50491 50436 50314 50093 49898 49588 49307 48976 48567 48144 47719 47177 46688 46079 45503 44850 44238 43593 42900 42224 41507 40816 40015 39257 38438 37587 36674 35782 34736 33725 32635 31413 30211 28814 27374 25797 23869 22285 20823 19408 18052 16888 15811 14749 13784 12917 12107 11373 10736 10203 9762 9437 9177 8896 8434 
32821 34633 35391 36138 36835 37539 38274 38938 39674 40398 40959 41647 42215 42703 43257 43749 44241 44650 45128 45500 45831 46085 46331 46618 46926 47243 47520 47863 48172 48463 48788 49073 49312 49584 49819 50127 50303 50533 50703 50877 51043 51094 51199 51191 51210 51136 51121 51028 50906 50675 50398 50169 49879 49537 49117 48759 48277 47853 47298 46760 46174 45626 44969 44362 43712 43021 42318 41622 40865 40146 39296 38554 37650 36722 35794 34763 33666 32573 31409 30058 28830 27410 25832 23761 22291 20781 19480 18176 17099 16000 15048 14096 13318 12518 11836 11190 10699 10246 9829 9177 
32681 34495 35308 36038 36870 37557 38333 39073 39774 40446 41198 41870 42431 43085 43595 44141 44685 45123 45590 45935 46294 46560 46829 47084 47382 47689 47951 48249 48547 48829 49130 49406 49698 50026 50226 50519 50747 50957 51203 51347 51540 51628 51742 51776 51835 51792 51777 51758 51620 51462 51251 50993 50747 50491 50066 49750 49310 48939 48438 48023 47484 46954 46391 45775 45187 44519 43903 43221 42466 41788 40997 40187 39473 38572 37716 36781 35783 34777 33681 32633 31398 30126 28819 27357 25665 23728 22278 20788 19543 18298 17265 16238 15371 14471 13755 12971 12402 11805 11182 10210 
32395 34333 35144 35942 36722 37525 38296 39052 39822 40604 41243 41938 42649 43273 43867 44428 44947 45431 45911 46306 46707 47002 47247 47556 47821 48128 48409 48693 49003 49258 49528 49835 50089 50395 50603 50906 51178 51409 51632 51822 52077 52173 52292 52423 52405 52501 52469 52395 52347 52174 52041 51852 51572 51380 51017 50691 50362 49983 49563 49192 48690 48268 47712 47213 46660 46052 45472 44777 44144 43445 42730 41901 41176 40329 39470 38616 37730 36790 35843 34864 33742 32561 31327 30020 28698 27156 25419 23654 22273 20821 19649 18495 17500 16517 15719 14899 14208 13565 12874 11651 
31929 33992 34886 35712 36541 37413 38219 38997 39776 40592 41346 42043 42727 43427 44055 44629 45253 45808 46258 46718 47089 47483 47707 48012 48286 48555 48876 49129 49435 49674 49953 50309 50489 50799 51095 51351 51609 51843 52119 52351 52645 52746 52916 53059 53103 53132 53151 53157 53087 53000 52839 52675 52449 52274 51954 51641 51381 51023 50675 50294 49866 49477 48978 48544 48031 47502 46997 46398 45778 45118 44391 43653 42828 42115 41228 40384 39563 38642 37781 36828 35760 34727 33618 32391 31142 29794 28417 26951 25117 23516 22209 20832 19762 18654 17732 16845 16109 15407 14658 13214 
31351 33566 34520 35399 36271 37188 38041 38915 39728 40493 41280 42114 42805 43522 44155 44833 45480 46033 46527 47054 47435 47842 48102 48394 48723 49019 49359 49589 49857 50195 50432 50761 50983 51253 51554 51811 52104 52346 52689 52916 53134 53373 53549 53715 53807 53892 53906 53886 53872 53771 53629 53507 53337 53110 52881 52604 52337 52011 51782 51392 51043 50659 50220 49861 49357 48934 48437 47856 47316 46711 46056 45365 44578 43777 42973 42125 41336 40484 39557 38704 37711 36668 35622 34503 33320 32085 30743 29448 28069 26616 24839 23361 22173 20848 19895 18865 17997 17263 16496 14839 
30708 33010 34003 34975 35898 36878 37781 38751 39576 40394 41223 42008 42827 43530 44296 44953 45564 46198 46811 47335 47809 48168 48522 48749 49154 49458 49771 50057 50329 50645 50876 51223 51495 51763 52025 52324 52656 52913 53218 53509 53763 53968 54162 54361 54482 54580 54634 54671 54688 54645 54544 54429 54271 54042 53809 53607 53412 53089 52809 52483 52244 51824 51475 51108 50657 50300 49790 49274 48829 48207 47613 46943 46228 45501 44672 43841 42992 42215 41281 40337 39367 38396 37376 36327 35202 34023 32839 31575 30321 29085 27712 26214 24521 23237 22094 20882 19993 19067 18258 16550 
29909 32419 33474 34468 35501 36451 37453 38427 39357 40260 41127 41903 42789 43548 44331 45000 45761 46367 46970 47571 48086 48545 48880 49175 49491 49873 50192 50511 50781 51159 51388 51705 51962 52257 52588 52869 53175 53472 53839 54124 54359 54605 54787 55009 55124 55242 55378 55425 55440 55403 55357 55242 55127 55009 54880 54713 54498 54251 54010 53699 53405 53033 52778 52380 51958 51602 51113 50718 50190 49653 49068 48449 47767 47042 46317 45496 44668 43788 42874 41952 40972 40019 39006 37969 36892 35810 34693 33503 32334 31041 29814 28508 27240 25685 24199 23033 21947 20896 20071 18125 
28957 31682 32790 33824 34893 35944 37010 38032 39041 40003 40959 41824 42654 43479 44310 45058 45783 46517 47138 47744 48328 48831 49222 49557 49892 50336 50571 51008 51255 51602 51891 52175 52506 52797 53104 53419 53776 54156 54435 54749 54977 55245 55428 55639 55798 55887 55996 56073 56142 56139 56074 55995 55938 55834 55775 55560 55439 55255 55073 54851 54641 54360 54090 53767 53455 53029 52528 52117 51568 51027 50525 49846 49197 48524 47822 47090 46228 45368 44373 43372 42413 41441 40408 39394 38350 37298 36180 35110 33999 32820 31573 30393 29242 27949 26646 25128 23847 22851 21846 19738 
27701 30890 32013 33179 34294 35420 36522 37570 38656 39703 40702 41669 42566 43437 44274 45079 45846 46551 47266 47929 48512 49062 49599 49895 50300 50634 51035 51347 51699 52010 52398 52652 53002 53305 53667 53999 54364 54749 55059 55338 55647 55839 56077 56274 56428 56547 56650 56703 56742 56789 56764 56749 56681 56613 56553 56420 56278 56167 56007 55827 55643 55433 55228 54979 54742 54361 54032 53572 53066 52509 51876 51202 50590 49914 49171 48510 47705 46776 45768 44770 43754 42726 41714 40681 39688 38650 37609 36510 35436 34277 33137 31988 30815 29712 28506 27375 26009 24607 23530 21236 
26346 29901 31171 32356 33563 34801 35973 37185 38290 39324 40391 41356 42405 43332 44204 45057 45836 46586 47326 48065 48730 49270 49764 50218 50607 51034 51465 51795 52199 52448 52836 53132 53494 53825 54189 54574 54991 55354 55688 55960 56220 56454 56681 56896 57043 57154 57247 57370 57419 57457 57431 57405 57356 57333 57270 57193 57113 56983 56881 56780 56593 56475 56286 56025 55792 55531 55235 54811 54400 53911 53332 52595 51923 51203 50503 49755 48958 48057 47045 46044 44994 43939 42905 41891 40910 39859 38853 37780 36735 35634 34495 33393 32209 31057 30009 28855 27807 26626 25272 22751 
25057 28874 30228 31500 32836 34065 35306 36632 37847 39012 40035 41101 42107 43137 44096 44986 45812 46620 47386 48134 48786 49498 50069 50471 50935 51408 51723 52198 52564 52937 53275 53622 53988 54361 54743 55202 55580 55930 56216 56564 56827 57099 57266 57478 57651 57772 57872 57958 58018 58044 58024 58016 57981 57937 57926 57850 57787 57753 57656 57554 57423 57325 57181 57013 56810 56608 56338 55936 55609 55054 54550 54039 53232 52414 51704 50921 50125 49222 48240 47207 46111 45074 43986 42949 41961 40933 39875 38894 37808 36801 35685 34555 33504 32405 31251 30157 29169 28072 26962 24047 
23877 27571 29200 30619 31921 33315 34686 36016 37255 38555 39726 40817 41897 42894 43916 44885 45761 46591 47430 48169 48900 49569 50258 50793 51175 51659 52108 52520 52941 53323 53693 54080 54492 54899 55307 55807 56161 56511 56833 57132 57369 57646 57882 58052 58194 58293 58394 58426 58472 58490 58460 58459 58438 58425 58410 58342 58296 58269 58221 58154 58077 57990 57894 57744 57653 57436 57262 56983 56664 56166 55681 55158 54447 53656 52847 52029 51203 50272 49299 48240 47164 46044 44960 43877 42828 41786 40777 39767 38687 37663 36610 35546 34484 33419 32329 31229 30212 29282 28167 25348 
22571 26041 28015 29549 31043 32558 33962 35372 36770 37993 39330 40453 41595 42644 43679 44696 45662 46522 47384 48185 48977 49717 50344 50975 51437 51907 52375 52886 53274 53706 54133 54527 54938 55362 55904 56296 56705 57057 57383 57672 57959 58195 58346 58518 58625 58709 58766 58822 58865 58901 58897 58872 58869 58849 58817 58794 58773 58778 58763 58723 58660 58615 58521 58480 58368 58223 58076 57807 57596 57175 56696 56142 55512 54813 53937 53061 52166 51225 50238 49178 48066 46904 45816 44719 43672 42603 41580 40516 39513 38452 37406 36345 35322 34261 33175 32165 31105 30152 29171 26617 
21449 24773 26521 28516 30085 31600 33179 34728 36148 37514 38784 40080 41241 42397 43488 44506 45518 46437 47336 48189 49017 49782 50499 51099 51634 52187 52629 53138 53590 54075 54495 54916 55388 55929 56391 56808 57230 57534 57867 58165 58432 58641 58766 58898 58987 59069 59138 59199 59253 59291 59254 59268 59253 59241 59266 59263 59229 59237 59235 59213 59221 59166 59148 59078 59041 58908 58759 58592 58349 58022 57640 57070 56447 55784 55039 54006 53038 52031 51061 49968 48846 47677 46529 45427 44374 43312 42262 41225 40236 39155 38164 37089 36056 34988 34000 32945 31910 30929 29909 27531 
20277 23627 25218 27223 29087 30744 32426 33991 35563 36924 38376 39630 40892 42068 43233 44308 45333 46330 47255 48144 49005 49830 50580 51280 51805 52298 52903 53404 53877 54373 54841 55284 55815 56390 56853 57289 57691 58007 58366 58628 58805 58969 59124 59234 59377 59440 59489 59551 59582 59631 59611 59610 59623 59623 59621 59630 59677 59665 59663 59676 59704 59677 59710 59676 59636 59590 59448 59304 59109 58799 58503 57975 57363 56707 55916 54836 53802 52763 51701 50642 49530 48350 47243 46093 45023 43932 42889 41858 40821 39776 38733 37710 36679 35648 34589 33610 32600 31603 30505 28161 
19242 22416 24060 25750 28003 29823 31525 33242 34834 36399 37849 39256 40516 41752 42923 44075 45158 46184 47145 48041 48971 49847 50645 51401 51997 52538 53066 53603 54151 54637 55140 55688 56251 56803 57291 57667 58066 58468 58768 58945 59136 59267 59459 59548 59680 59739 59808 59880 59930 59960 59969 59959 59964 59956 59980 60002 60038 60067 60063 60099 60127 60191 60192 60182 60190 60131 60076 59894 59760 59530 59168 58757 58092 57497 56631 55565 54473 53363 52311 51209 50115 48908 47739 46637 45487 44424 43387 42335 41259 40259 39194 38200 37175 36125 35094 34090 33079 32072 31075 28670 
18259 21400 22963 24597 26685 28873 30748 32483 34235 35829 37361 38751 40173 41435 42692 43804 44931 45989 46997 47969 48906 49791 50665 51462 52100 52662 53210 53778 54315 54888 55424 55997 56642 57160 57604 58062 58464 58818 59017 59254 59409 59569 59733 59847 59971 60041 60089 60145 60193 60227 60255 60253 60266 60260 60294 60316 60361 60388 60453 60478 60505 60558 60621 60687 60651 60662 60605 60514 60370 60131 59840 59453 58883 58212 57375 56208 55062 53935 52888 51801 50656 49469 48247 47098 45990 44891 43798 42726 41644 40611 39577 38540 37540 36478 35510 34463 33454 32526 31479 29069 
17319 20322 21796 23553 25277 27795 29799 31633 33498 35201 36779 38355 39706 41066 42308 43580 44666 45769 46840 47801 48769 49713 50601 51468 52141 52762 53343 53970 54520 55078 55691 56345 56961 57504 57984 58444 58799 59035 59297 59485 59690 59875 59990 60134 60234 60306 60370 60393 60431 60471 60494 60497 60522 60531 60568 60593 60637 60682 60734 60804 60864 60944 61024 61024 61076 61103 61081 61036 60904 60715 60479 60156 59564 58886 58047 56867 55678 54523 53404 52316 51062 49842 48639 47464 46344 45248 44151 43067 42011 40989 39962 38938 37892 36928 35873 34825 33844 32838 31817 29402 
15266 18028 19498 21062 22840 24823 27438 29677 31661 33622 35442 37149 38637 40182 41462 42792 44047 45253 46355 47456 48448 49419 50390 51299 52137 52919 53482 54160 54816 55455 56191 56912 57559 58108 58607 58998 59277 59559 59828 60054 60241 60379 60519 60639 60610 60600 60601 60613 60624 60650 60688 60781 60787 60831 60830 60856 60886 60974 61066 61155 61288 61394 61486 61573 61551 61634 61689 61741 61776 61770 61633 61396 60968 60335 59448 58255 56944 55697 54545 53272 52030 50785 49485 48282 47122 45998 44861 43806 42769 41733 40642 39566 38518 37494 36445 35462 34375 33398 32396 29955 
